<svg width="29" height="21" viewBox="0 0 29 21" fill="none" xmlns="http://www.w3.org/2000/svg">
<path d="M28.6051 9.5465L19.9751 0.916575C19.4486 0.390042 18.5947 0.390042 18.0681 0.916575C17.5415 1.44322 17.5415 2.29693 18.0681 2.82357L24.3962 9.15157H1.34843C0.603771 9.15157 0 9.75535 0 10.5C0 11.2445 0.603771 11.8484 1.34843 11.8484H24.3962L18.0684 18.1764C17.5417 18.7031 17.5417 19.5568 18.0684 20.0834C18.3316 20.3465 18.6768 20.4784 19.0219 20.4784C19.367 20.4784 19.712 20.3465 19.9754 20.0834L28.6051 11.4535C29.1317 10.9269 29.1317 10.0731 28.6051 9.5465Z" fill="#0A1939"/>
</svg>
