<svg width="29" height="21" viewBox="0 0 29 21" fill="none" xmlns="http://www.w3.org/2000/svg">
<path d="M0.39493 9.5465L9.02485 0.916575C9.55139 0.390042 10.4053 0.390042 10.9319 0.916575C11.4585 1.44322 11.4585 2.29693 10.9319 2.82357L4.60385 9.15157H27.6516C28.3962 9.15157 29 9.75535 29 10.5C29 11.2445 28.3962 11.8484 27.6516 11.8484H4.60385L10.9316 18.1764C11.4583 18.7031 11.4583 19.5568 10.9316 20.0834C10.6684 20.3465 10.3232 20.4784 9.97814 20.4784C9.63305 20.4784 9.28796 20.3465 9.02464 20.0834L0.39493 11.4535C-0.131712 10.9269 -0.131712 10.0731 0.39493 9.5465Z" fill="#0A1939"/>
</svg>
