<svg width="30" height="29" viewBox="0 0 30 29" fill="none" xmlns="http://www.w3.org/2000/svg">
<path d="M6.27907 12.4286C9.7469 12.4286 12.5581 9.64634 12.5581 6.21429C12.5581 2.78223 9.7469 0 6.27907 0C2.81123 0 0 2.78223 0 6.21429C0 9.64634 2.81123 12.4286 6.27907 12.4286Z" fill="white"/>
<path d="M23.721 12.4286C27.1888 12.4286 30 9.64634 30 6.21429C30 2.78223 27.1888 0 23.721 0C20.2531 0 17.4419 2.78223 17.4419 6.21429C17.4419 9.64634 20.2531 12.4286 23.721 12.4286Z" fill="white"/>
<path d="M6.27907 29C9.7469 29 12.5581 26.2178 12.5581 22.7857C12.5581 19.3536 9.7469 16.5714 6.27907 16.5714C2.81123 16.5714 0 19.3536 0 22.7857C0 26.2178 2.81123 29 6.27907 29Z" fill="white"/>
<path d="M23.721 29C27.1888 29 30 26.2178 30 22.7857C30 19.3536 27.1888 16.5714 23.721 16.5714C20.2531 16.5714 17.4419 19.3536 17.4419 22.7857C17.4419 26.2178 20.2531 29 23.721 29Z" fill="white"/>
</svg>
