<svg width="27" height="27" viewBox="0 0 27 27" fill="none" xmlns="http://www.w3.org/2000/svg">
<path d="M26.9871 21.3028C27.0443 21.7411 26.9107 22.1222 26.5869 22.4461L22.7854 26.2189C22.6139 26.4095 22.3901 26.5716 22.1138 26.7049C21.8375 26.8383 21.566 26.924 21.2993 26.9621C21.2802 26.9621 21.2229 26.967 21.1276 26.9765C21.0325 26.986 20.9086 26.9909 20.7562 26.9909C20.394 26.9909 19.808 26.9289 18.9982 26.805C18.1883 26.6811 17.1975 26.3762 16.0257 25.8904C14.8536 25.4045 13.5245 24.6755 12.0383 23.7038C10.552 22.7321 8.97034 21.3981 7.29347 19.7022C5.9596 18.3873 4.85439 17.1297 3.97785 15.9293C3.1013 14.7287 2.39625 13.6188 1.8627 12.5993C1.32911 11.5798 0.928947 10.6556 0.662173 9.82674C0.395398 8.99783 0.214372 8.28326 0.119096 7.68302C0.0238192 7.08277 -0.0142915 6.61115 0.00476383 6.26816C0.0238192 5.92516 0.0333468 5.73461 0.0333468 5.6965C0.0714575 5.42972 0.157206 5.15819 0.290594 4.88188C0.423981 4.60558 0.585951 4.38168 0.776505 4.21018L4.57804 0.408646C4.84482 0.141871 5.1497 0.00848389 5.4927 0.00848389C5.74042 0.00848389 5.95955 0.0799413 6.15011 0.222856C6.34066 0.365771 6.50263 0.542033 6.63602 0.751642L9.6944 6.55399C9.8659 6.85887 9.91354 7.19234 9.83731 7.55439C9.76109 7.91644 9.59912 8.22133 9.3514 8.46905L7.95084 9.86962C7.91273 9.90773 7.87938 9.96966 7.85079 10.0554C7.82221 10.1412 7.80792 10.2126 7.80792 10.2698C7.88414 10.6699 8.05564 11.1273 8.32241 11.6418C8.55108 12.0991 8.9036 12.6565 9.37998 13.3139C9.85637 13.9713 10.5328 14.7287 11.4094 15.5862C12.2669 16.4628 13.0291 17.1439 13.696 17.6299C14.3628 18.1157 14.9204 18.4731 15.3682 18.7018C15.816 18.9304 16.159 19.0686 16.3971 19.1161L16.7543 19.1876C16.7924 19.1876 16.8545 19.1732 16.9401 19.1447C17.0259 19.1161 17.0878 19.0828 17.126 19.0446L18.7552 17.3868C19.0983 17.082 19.4983 16.9295 19.9557 16.9295C20.2797 16.9295 20.5368 16.9866 20.7274 17.101H20.7559L26.2724 20.3595C26.6727 20.6074 26.9108 20.9217 26.9871 21.3028Z" fill="#0A1939"/>
</svg>
