<svg width="23" height="23" viewBox="0 0 23 23" fill="none" xmlns="http://www.w3.org/2000/svg">
<path d="M0.200333 21.8271L5.78969 16.2377C4.29035 14.514 3.38259 12.265 3.38259 9.80687C3.38259 4.39601 7.7837 0 13.1895 0C18.6003 0 22.9963 4.40111 22.9963 9.80687C22.9963 15.2126 18.5952 19.6137 13.1895 19.6137C10.7314 19.6137 8.48237 18.706 6.75865 17.2067L1.16929 22.796C1.0367 22.9286 0.858204 23 0.684811 23C0.511419 23 0.332926 22.9337 0.200333 22.796C-0.0648556 22.5308 -0.0648556 22.0922 0.200333 21.8271ZM21.6245 9.80687C21.6245 5.15588 17.8405 1.37694 13.1946 1.37694C8.54357 1.37694 4.76463 5.16098 4.76463 9.80687C4.76463 14.4528 8.54357 18.2419 13.1946 18.2419C17.8405 18.2419 21.6245 14.4579 21.6245 9.80687Z" fill="white"/>
</svg>
