<svg width="24" height="24" viewBox="0 0 24 24" fill="none" xmlns="http://www.w3.org/2000/svg">
<g clip-path="url(#clip0)">
<path d="M10.1538 0H0.923096C0.413276 0 0 0.413276 0 0.923096V10.1539C0 10.6637 0.413276 11.077 0.923096 11.077H10.1539C10.6637 11.077 11.077 10.6637 11.077 10.1539V0.923096C11.0769 0.413276 10.6637 0 10.1538 0Z" fill="#0A1939"/>
<path d="M23.0768 0H13.8459C13.3361 0 12.9229 0.413276 12.9229 0.923096V10.1539C12.9229 10.6637 13.3361 11.077 13.8459 11.077H23.0768C23.5866 11.077 23.9999 10.6637 23.9999 10.1539V0.923096C23.9998 0.413276 23.5865 0 23.0768 0Z" fill="#0A1939"/>
<path d="M10.1538 12.9231H0.923096C0.413276 12.9231 0 13.3363 0 13.8462V23.077C0 23.5868 0.413276 24.0001 0.923096 24.0001H10.1539C10.6637 24.0001 11.077 23.5868 11.077 23.077V13.8462C11.0769 13.3363 10.6637 12.9231 10.1538 12.9231Z" fill="#0A1939"/>
<path d="M23.0768 12.9231H13.8459C13.3361 12.9231 12.9229 13.3363 12.9229 13.8462V23.077C12.9229 23.5868 13.3361 24.0001 13.8459 24.0001H23.0768C23.5866 24.0001 23.9999 23.5868 23.9999 23.077V13.8462C23.9998 13.3363 23.5865 12.9231 23.0768 12.9231Z" fill="#0A1939"/>
</g>
<defs>
<clipPath id="clip0">
<rect width="24" height="24" fill="white"/>
</clipPath>
</defs>
</svg>
