<svg width="15" height="21" viewBox="0 0 15 21" fill="none" xmlns="http://www.w3.org/2000/svg">
<path d="M12.6012 0H11.3098L11.1205 1.7768C11.0059 2.73644 9.96742 3.89648 8.53115 3.89648H6.46885C5.24795 3.89648 4.18934 3.05854 3.89385 1.85842C3.87947 1.79993 3.89418 1.91449 3.69016 0H2.39877C1.07623 0 0 1.07707 0 2.40064V18.5994C0 19.9229 1.07623 21 2.39877 21H12.6012C13.9238 21 15 19.9229 15 18.5994V2.40064C15 1.07707 13.9238 0 12.6012 0V0ZM7.82787 16.3652H3.2377C2.42443 16.3652 2.42418 15.1348 3.2377 15.1348H7.82787C8.64115 15.1348 8.64139 16.3652 7.82787 16.3652ZM7.82787 13.7402H3.2377C2.42443 13.7402 2.42418 12.5098 3.2377 12.5098H7.82787C8.64115 12.5098 8.64139 13.7402 7.82787 13.7402ZM7.82787 11.1152H3.2377C2.42443 11.1152 2.42418 9.88477 3.2377 9.88477H7.82787C8.64115 9.88477 8.64139 11.1152 7.82787 11.1152ZM7.82787 8.49023H3.2377C2.42443 8.49023 2.42418 7.25977 3.2377 7.25977H7.82787C8.64115 7.25977 8.64139 8.49023 7.82787 8.49023ZM12.3742 15.8107C12.2898 16.6227 11.0682 16.4952 11.1504 15.6893C11.2339 14.8859 12.4397 14.9919 12.3742 15.8107ZM12.3742 13.1857C12.2895 14.0002 11.0687 13.8692 11.1508 13.0643C11.2164 12.2746 12.4421 12.3536 12.3742 13.1857ZM12.1971 10.9352C11.9503 11.1752 11.5749 11.1757 11.3275 10.9352C10.963 10.5691 11.184 9.94157 11.7016 9.88764C12.2732 9.82964 12.6043 10.5262 12.1971 10.9352ZM12.3742 7.9357C12.2896 8.74949 11.0683 8.61894 11.1504 7.8143C11.2353 6.99735 12.4561 7.13344 12.3742 7.9357ZM4.92705 0L5.09754 1.60125C5.26926 2.23002 5.82787 2.66602 6.46885 2.66602H8.53115C9.17213 2.66602 9.73074 2.23002 9.90246 1.60125L10.073 0H4.92705Z" fill="#C4C4C4"/>
</svg>
