<svg width="26" height="26" viewBox="0 0 26 26" fill="none" xmlns="http://www.w3.org/2000/svg">
<g clip-path="url(#clip0)">
<path d="M25.4589 8.25366L25.4605 8.27058L25.4632 8.28736C25.4835 8.41439 25.6062 9.31913 25.2488 10.8321L25.2487 10.8323C24.7342 13.0132 23.5447 15.002 21.8014 16.5826C21.8009 16.583 21.8004 16.5835 21.7999 16.5839L12.925 24.5013L4.20011 16.5837L4.19983 16.5834C2.45576 15.0031 1.26574 13.0133 0.75103 10.8322L0.751009 10.8321C0.393465 9.31832 0.516451 8.41394 0.536903 8.28816L0.539741 8.27071L0.541339 8.2531C0.901815 4.28025 3.68836 1.5 7.07929 1.5C9.31634 1.5 11.3219 2.69562 12.4964 4.70548L12.9234 5.43608L13.3574 4.70961C14.5407 2.72864 16.6381 1.5005 18.9205 1.5005C22.3119 1.5005 25.098 4.28073 25.4589 8.25366Z" stroke="#0A1939"/>
</g>
<defs>
<clipPath id="clip0">
<rect width="26" height="26" fill="white"/>
</clipPath>
</defs>
</svg>
